<svg width="25" height="25" viewBox="0 0 25 25" fill="none" xmlns="http://www.w3.org/2000/svg">
<path d="M5.17871 11.2056C5.17871 10.3721 5.85517 9.69568 6.68867 9.69568H7.98291C8.15454 9.69568 8.31914 9.76386 8.4405 9.88522C8.56186 10.0066 8.63004 10.1712 8.63004 10.3428C8.63004 10.5144 8.56186 10.679 8.4405 10.8004C8.31914 10.9217 8.15454 10.9899 7.98291 10.9899H6.68867C6.63146 10.9899 6.57659 11.0127 6.53614 11.0531C6.49568 11.0936 6.47296 11.1484 6.47296 11.2056V17.6769C6.47296 17.7959 6.56959 17.8926 6.68867 17.8926H13.1599C13.2171 17.8926 13.272 17.8698 13.3124 17.8294C13.3529 17.7889 13.3756 17.7341 13.3756 17.6769V16.3826C13.3756 16.211 13.4438 16.0464 13.5651 15.925C13.6865 15.8037 13.8511 15.7355 14.0227 15.7355C14.1944 15.7355 14.359 15.8037 14.4803 15.925C14.6017 16.0464 14.6699 16.211 14.6699 16.3826V17.6769C14.6699 18.0773 14.5108 18.4614 14.2276 18.7446C13.9444 19.0277 13.5604 19.1868 13.1599 19.1868H6.68867C6.2882 19.1868 5.90414 19.0277 5.62097 18.7446C5.33779 18.4614 5.17871 18.0773 5.17871 17.6769V11.2056Z" fill="#9F9F9F"/>
<path d="M9.49292 6.89142C9.49292 6.05793 10.1694 5.38147 11.0029 5.38147H17.4741C18.3076 5.38147 18.9841 6.05793 18.9841 6.89142V13.3627C18.9841 13.7631 18.825 14.1472 18.5418 14.4304C18.2586 14.7135 17.8746 14.8726 17.4741 14.8726H11.0029C10.6024 14.8726 10.2183 14.7135 9.93518 14.4304C9.652 14.1472 9.49292 13.7631 9.49292 13.3627V6.89142ZM11.0029 6.67572C10.9457 6.67572 10.8908 6.69844 10.8503 6.7389C10.8099 6.77935 10.7872 6.83421 10.7872 6.89142V13.3627C10.7872 13.4817 10.8838 13.5784 11.0029 13.5784H17.4741C17.5313 13.5784 17.5862 13.5556 17.6266 13.5152C17.6671 13.4747 17.6898 13.4199 17.6898 13.3627V6.89142C17.6898 6.83421 17.6671 6.77935 17.6266 6.7389C17.5862 6.69844 17.5313 6.67572 17.4741 6.67572H11.0029Z" fill="#9F9F9F"/>
</svg>
