<svg width="25" height="25" viewBox="0 0 25 25" fill="none" xmlns="http://www.w3.org/2000/svg">
<path d="M17.8676 7.42802C18.0485 7.42802 18.2221 7.49989 18.35 7.62783C18.4779 7.75576 18.5498 7.92928 18.5498 8.1102C18.5498 8.29113 18.4779 8.46464 18.35 8.59258C18.2221 8.72051 18.0485 8.79239 17.8676 8.79239H17.1854L17.1834 8.84082L16.5469 17.7576C16.5224 18.1019 16.3684 18.424 16.1159 18.6592C15.8633 18.8944 15.531 19.0251 15.186 19.0251H9.63367C9.28858 19.0251 8.95631 18.8944 8.70378 18.6592C8.45124 18.424 8.29722 18.1019 8.27272 17.7576L7.63624 8.8415C7.6352 8.82515 7.63475 8.80877 7.63487 8.79239H6.95269C6.77176 8.79239 6.59825 8.72051 6.47031 8.59258C6.34238 8.46464 6.27051 8.29113 6.27051 8.1102C6.27051 7.92928 6.34238 7.75576 6.47031 7.62783C6.59825 7.49989 6.77176 7.42802 6.95269 7.42802H17.8676ZM15.819 8.79239H9.00129L9.63435 17.6608H15.186L15.819 8.79239ZM13.7745 5.38147C13.9554 5.38147 14.129 5.45334 14.2569 5.58128C14.3848 5.70921 14.4567 5.88273 14.4567 6.06365C14.4567 6.24458 14.3848 6.4181 14.2569 6.54603C14.129 6.67396 13.9554 6.74584 13.7745 6.74584H11.0458C10.8649 6.74584 10.6913 6.67396 10.5634 6.54603C10.4355 6.4181 10.3636 6.24458 10.3636 6.06365C10.3636 5.88273 10.4355 5.70921 10.5634 5.58128C10.6913 5.45334 10.8649 5.38147 11.0458 5.38147H13.7745Z" fill="#9F9F9F"/>
</svg>
