<svg width="25" height="25" viewBox="0 0 25 25" fill="none" xmlns="http://www.w3.org/2000/svg">
<path d="M18.7507 12.052C18.5738 12.052 18.4043 12.1222 18.2792 12.2473C18.1542 12.3723 18.084 12.5419 18.084 12.7187V16.7187C18.084 16.8955 18.0137 17.065 17.8887 17.1901C17.7637 17.3151 17.5941 17.3853 17.4173 17.3853H8.08398C7.90717 17.3853 7.7376 17.3151 7.61258 17.1901C7.48756 17.065 7.41732 16.8955 7.41732 16.7187V7.38534C7.41732 7.20852 7.48756 7.03896 7.61258 6.91393C7.7376 6.78891 7.90717 6.71867 8.08398 6.71867H12.084C12.2608 6.71867 12.4304 6.64843 12.5554 6.52341C12.6804 6.39838 12.7507 6.22881 12.7507 6.052C12.7507 5.87519 12.6804 5.70562 12.5554 5.5806C12.4304 5.45557 12.2608 5.38534 12.084 5.38534H8.08398C7.55355 5.38534 7.04484 5.59605 6.66977 5.97112C6.2947 6.34619 6.08398 6.8549 6.08398 7.38534V16.7187C6.08398 17.2491 6.2947 17.7578 6.66977 18.1329C7.04484 18.508 7.55355 18.7187 8.08398 18.7187H17.4173C17.9478 18.7187 18.4565 18.508 18.8315 18.1329C19.2066 17.7578 19.4173 17.2491 19.4173 16.7187V12.7187C19.4173 12.5419 19.3471 12.3723 19.2221 12.2473C19.097 12.1222 18.9275 12.052 18.7507 12.052ZM8.75065 12.5587V15.3853C8.75065 15.5621 8.82089 15.7317 8.94591 15.8567C9.07094 15.9818 9.24051 16.052 9.41732 16.052H12.244C12.3317 16.0525 12.4187 16.0357 12.4999 16.0025C12.5811 15.9693 12.655 15.9205 12.7173 15.8587L17.3307 11.2387L19.224 9.38534C19.2865 9.32336 19.3361 9.24963 19.3699 9.16839C19.4038 9.08715 19.4212 9.00001 19.4212 8.912C19.4212 8.82399 19.4038 8.73686 19.3699 8.65562C19.3361 8.57438 19.2865 8.50064 19.224 8.43867L16.3973 5.57867C16.3353 5.51618 16.2616 5.46659 16.1804 5.43274C16.0991 5.3989 16.012 5.38147 15.924 5.38147C15.836 5.38147 15.7488 5.3989 15.6676 5.43274C15.5864 5.46659 15.5126 5.51618 15.4507 5.57867L13.5707 7.46534L8.94398 12.0853C8.8822 12.1476 8.83331 12.2215 8.80014 12.3027C8.76696 12.384 8.75014 12.4709 8.75065 12.5587ZM15.924 6.992L17.8107 8.87867L16.864 9.82534L14.9773 7.93867L15.924 6.992ZM10.084 12.832L14.0373 8.87867L15.924 10.7653L11.9707 14.7187H10.084V12.832Z" fill="#9F9F9F"/>
</svg>
