<svg width="25" height="25" viewBox="0 0 25 25" fill="none" xmlns="http://www.w3.org/2000/svg">
<path d="M11.6733 18.3833L4.17334 12.05L11.6733 5.71667V9.67501C15.8156 9.67501 19.1733 13.2193 19.1733 17.5917C19.1733 17.8078 19.1658 18.0215 19.1493 18.2329C18.595 17.1209 17.772 16.1833 16.7638 15.5153C15.7555 14.8472 14.5978 14.4725 13.4081 14.429L13.1733 14.425H11.6733V18.3833ZM10.1733 12.8417H13.1988L13.4591 12.8472C14.4228 12.8813 15.3521 13.0926 16.2161 13.4536C15.6534 12.764 14.9561 12.2107 14.172 11.8318C13.388 11.4529 12.5357 11.2573 11.6733 11.2583H10.1733V9.0108L6.57484 12.05L10.1733 15.0892V12.8417Z" fill="#9F9F9F"/>
</svg>
